<svg width="1020" height="1020" viewBox="0 0 1020 1020" fill="none" xmlns="http://www.w3.org/2000/svg">
<path clip-rule="evenodd" d="M510 1020C791.665 1020 1020 791.665 1020 510C1020 228.335 791.665 0 510 0C228.335 0 0 228.335 0 510C0 791.665 228.335 1020 510 1020ZM534.863 271.456V251.238H530.613C501.509 251.667 479.573 261.025 464.806 279.312C450.125 297.513 442.785 323.87 442.785 358.384V367.527C442.785 389.248 448.365 407.02 459.526 420.842C460.999 422.654 462.53 424.346 464.12 425.919L447.679 432.093V453.728L486.919 439.315C489.742 440.106 492.674 440.677 495.714 441.028V560.805C479.665 561.101 466.358 566.033 455.792 575.601C444.974 585.388 439.565 597.708 439.565 612.561H463.39C463.39 602.859 466.438 595.09 472.533 589.252C478.403 583.627 486.129 580.672 495.714 580.388V594.872H519.667V586.644C526.621 592.05 530.098 600.946 530.098 613.334C530.098 623.121 526.879 630.891 520.44 636.643C514.001 642.395 505.158 645.357 493.911 645.529H476.01V664.975H493.911C506.531 665.146 516.19 668.151 522.887 673.989C529.583 679.827 532.932 688.198 532.932 699.102C532.932 710.349 529.884 718.977 523.788 724.987C517.692 730.996 508.892 734.001 497.388 734.001C486.57 734.001 477.942 731.039 471.503 725.115C465.064 719.191 461.844 711.293 461.844 701.42H437.891C437.891 717.045 443.386 729.623 454.375 739.153C465.45 748.682 479.788 753.447 497.388 753.447C514.988 753.447 529.283 748.511 540.272 738.637C551.261 728.764 556.756 715.414 556.756 698.587C556.756 687.683 553.923 678.454 548.256 670.899C542.676 663.344 534.734 657.935 524.432 654.672C533.532 650.895 540.701 645.185 545.938 637.544C551.261 629.903 553.923 622.005 553.923 613.849C553.923 597.193 548.9 584.186 538.855 574.828C533.532 569.869 527.136 566.224 519.667 563.893V439.516C529.855 436.94 538.44 431.789 545.423 424.062C555.983 412.471 561.263 397.018 561.263 377.701C561.263 359.5 556.37 344.647 546.582 333.142C536.881 321.638 523.874 315.886 507.562 315.886C490.477 315.886 476.998 321.552 467.124 332.885C468.842 313.568 475.195 298.586 486.184 287.94C497.173 277.295 511.94 271.8 530.485 271.456H534.863ZM519.667 417.672C522.983 415.756 525.902 413.164 528.424 409.896C534.606 401.997 537.696 391.652 537.696 378.86C537.696 365.982 534.563 355.593 528.295 347.695C522.114 339.71 513.872 335.718 503.569 335.718C495.413 335.718 487.901 338.165 481.033 343.059C474.164 347.952 469.4 354.091 466.738 361.474V370.231C466.738 385.685 470.215 398.134 477.169 407.578C480.201 411.695 483.559 414.915 487.244 417.237L515.932 406.465H519.667V417.672Z" fill="black"/>
</svg>
