<svg width="16" height="28" viewBox="0 0 16 28" fill="yello" xmlns="http://www.w3.org/2000/svg">
<path d="M12.3379 5.40071H15.2697C15.5933 5.40071 15.856 5.13802 15.856 4.81436V0.864099C15.856 0.55685 15.6197 0.3012 15.3136 0.279505C14.3807 0.213247 12.5584 0.123535 11.2479 0.123535C7.64707 0.123535 5.30166 2.28131 5.30166 6.20284V10.0915H1.19719C0.873526 10.0915 0.61084 10.3542 0.61084 10.6779V14.7824C0.61084 15.106 0.873526 15.3687 1.19719 15.3687H5.30166V26.5094C5.30166 26.8331 5.56435 27.0958 5.88801 27.0958H9.99248C10.3161 27.0958 10.5788 26.8331 10.5788 26.5094V15.3687H14.8135C15.1125 15.3687 15.3635 15.1441 15.3963 14.8469L15.8525 10.7424C15.8912 10.3953 15.6191 10.0915 15.2697 10.0915H10.5788V7.15977C10.5788 6.18818 11.3663 5.40071 12.3379 5.40071Z" fill="white"/>
</svg>
