<svg width="31" height="30" viewBox="0 0 31 30" fill="none" xmlns="http://www.w3.org/2000/svg">
<path fill-rule="evenodd" clip-rule="evenodd" d="M9.7406 1.47959H21.9451C26.0718 1.47959 29.4033 4.81107 29.4033 8.93786V21.1423C29.4033 25.2691 26.0718 28.6006 21.9451 28.6006H9.7406C5.61381 28.6006 2.28232 25.2691 2.28232 21.1423V8.93786C2.28232 4.81107 5.61381 1.47959 9.7406 1.47959ZM23.0203 5.94492C23.2746 5.69061 23.6195 5.54774 23.9791 5.54774C24.3388 5.54774 24.6837 5.69061 24.938 5.94492C25.1923 6.19923 25.3352 6.54414 25.3352 6.90379C25.3352 7.26344 25.1923 7.60835 24.938 7.86266C24.6837 8.11697 24.3388 8.25984 23.9791 8.25984C23.6195 8.25984 23.2746 8.11697 23.0203 7.86266C22.7659 7.60835 22.6231 7.26344 22.6231 6.90379C22.6231 6.54414 22.7659 6.19923 23.0203 5.94492ZM8.38455 15.0401C8.38455 10.929 11.7318 7.58181 15.8428 7.58181C19.9539 7.58181 23.3011 10.929 23.3011 15.0401C23.3011 19.1512 19.9539 22.4984 15.8428 22.4984C11.7318 22.4984 8.38455 19.1512 8.38455 15.0401Z" fill="white"/>
<path d="M15.8428 8.93786C19.221 8.93786 21.9451 11.6619 21.9451 15.0401C21.9451 18.4183 19.221 21.1423 15.8428 21.1423C12.4646 21.1423 9.7406 18.4183 9.7406 15.0401C9.7406 11.6619 12.4646 8.93786 15.8428 8.93786Z" fill="white"/>
</svg>
