<svg width="1020" height="1020" viewBox="0 0 1020 1020" fill="none" xmlns="http://www.w3.org/2000/svg">
<circle cx="510" cy="510" r="497.5" stroke="black" stroke-width="25"/>
<path d="M534.863 251.238V271.456H530.485C511.94 271.8 497.173 277.295 486.184 287.94C475.195 298.586 468.842 313.568 467.125 332.885C476.998 321.552 490.477 315.886 507.562 315.886C523.874 315.886 536.881 321.638 546.582 333.142C556.37 344.647 561.263 359.5 561.263 377.701C561.263 397.018 555.983 412.472 545.423 424.062C534.949 435.652 520.869 441.447 503.183 441.447C485.24 441.447 470.687 434.579 459.526 420.842C448.365 407.02 442.785 389.248 442.785 367.527V358.384C442.785 323.87 450.125 297.513 464.806 279.312C479.573 261.025 501.509 251.667 530.614 251.238H534.863ZM503.57 335.718C495.413 335.718 487.901 338.165 481.033 343.059C474.165 347.952 469.4 354.091 466.738 361.474V370.231C466.738 385.685 470.215 398.134 477.169 407.578C484.124 417.022 492.795 421.744 503.183 421.744C513.915 421.744 522.329 417.794 528.424 409.896C534.606 401.997 537.696 391.652 537.696 378.86C537.696 365.982 534.563 355.593 528.295 347.695C522.114 339.71 513.872 335.718 503.57 335.718ZM519.667 594.872H495.714V436.085L447.679 453.728V432.093L515.932 406.465H519.667V594.872ZM476.01 645.529H493.911C505.158 645.357 514.001 642.395 520.44 636.643C526.879 630.891 530.098 623.121 530.098 613.334C530.098 591.355 519.152 580.366 497.259 580.366C486.957 580.366 478.715 583.328 472.533 589.252C466.438 595.09 463.39 602.859 463.39 612.561H439.565C439.565 597.708 444.974 585.388 455.792 575.601C466.695 565.728 480.518 560.791 497.259 560.791C514.945 560.791 528.811 565.47 538.855 574.828C548.9 584.186 553.923 597.193 553.923 613.849C553.923 622.005 551.261 629.903 545.938 637.544C540.701 645.185 533.533 650.895 524.432 654.672C534.734 657.935 542.676 663.344 548.256 670.899C553.923 678.454 556.756 687.683 556.756 698.587C556.756 715.414 551.261 728.764 540.272 738.637C529.283 748.511 514.988 753.447 497.388 753.447C479.788 753.447 465.45 748.682 454.375 739.153C443.386 729.623 437.891 717.045 437.891 701.42H461.845C461.845 711.293 465.064 719.191 471.503 725.115C477.942 731.039 486.57 734.001 497.388 734.001C508.892 734.001 517.692 730.996 523.788 724.987C529.884 718.977 532.932 710.349 532.932 699.102C532.932 688.198 529.583 679.827 522.887 673.989C516.19 668.151 506.531 665.146 493.911 664.975H476.01V645.529Z" fill="black"/>
</svg>
