<svg width="32" height="28" viewBox="0 0 32 28" fill="none" xmlns="http://www.w3.org/2000/svg">
<path d="M21.5715 2.68928L21.5605 2.68625C21.5275 2.67714 21.4934 2.67271 21.4622 2.67271C21.2945 2.67271 21.14 2.75861 21.0615 2.88725L21.5715 2.68928ZM21.5715 2.68928L21.5827 2.69182C21.6007 2.69591 21.623 2.70314 21.6503 2.71672C21.6506 2.71687 21.6509 2.71702 21.6512 2.71716L29.8032 6.84471M21.5715 2.68928L29.8032 6.84471M29.8032 6.84471L21.5345 20.4536L21.5342 20.454L21.1326 21.1136L16.0425 11.145L20.5675 3.69932L20.5676 3.69911L21.0614 2.88746L29.8032 6.84471ZM3.26283 22.0941L3.26271 22.094C3.14968 22.0368 3.01682 21.9132 2.91054 21.739C2.80441 21.565 2.75377 21.3881 2.75377 21.2576V3.05574C2.75377 2.89981 2.79491 2.83238 2.81076 2.81338C2.81847 2.80415 2.82443 2.80049 2.82942 2.79822C2.83482 2.79578 2.84815 2.79097 2.87399 2.79097C2.91459 2.79097 2.98185 2.80201 3.07008 2.84684C3.07018 2.84689 3.07028 2.84694 3.07038 2.84699L3.32742 2.97814L3.43447 3.03276H3.43791L11.1727 6.94921V25.4362C11.1727 25.6502 11.1157 25.7661 11.0716 25.819C11.0342 25.8638 10.9838 25.8929 10.8974 25.8929C10.8297 25.8929 10.7277 25.8737 10.5938 25.8068C10.5934 25.8067 10.5931 25.8065 10.5928 25.8064L3.26283 22.0941ZM27.9564 25.0587L27.956 25.0585L23.0032 22.551L30.0106 11.0199V25.4362C30.0106 25.6185 29.9582 25.7044 29.9221 25.7419C29.8874 25.7779 29.82 25.8193 29.6854 25.8193C29.558 25.8193 29.3828 25.7821 29.1727 25.6761C29.1726 25.676 29.1724 25.6759 29.1723 25.6758L27.9564 25.0587ZM13.8512 17.9181L13.5183 17.748V11.3583L17.9174 19.9767L13.8528 17.9189L13.8512 17.9181Z" fill="white" stroke="white"/>
</svg>
